<svg viewBox="0 0 512 512" xmlns="http://www.w3.org/2000/svg">
  <defs>
    <linearGradient id="pet" x1="0" y1="0" x2="0" y2="1">
      <stop offset="0" stop-color="#FF9ED2"/>
      <stop offset="1" stop-color="#DB2777"/>
    </linearGradient>
  </defs>
  <rect x="0" y="0" width="512" height="512" rx="112" fill="url(#pet)"/>
  <ellipse cx="190" cy="150" rx="190" ry="120" fill="#FFFFFF" opacity="0.12"/>
  <g>
    <ellipse cx="256" cy="161" rx="48" ry="95" fill="#FFFFFF"/>
    <ellipse cx="256" cy="161" rx="48" ry="95" fill="#FFFFFF" transform="rotate(60 256 256)"/>
    <ellipse cx="256" cy="161" rx="48" ry="95" fill="#FFFFFF" transform="rotate(120 256 256)"/>
    <ellipse cx="256" cy="161" rx="48" ry="95" fill="#FFFFFF" transform="rotate(180 256 256)"/>
    <ellipse cx="256" cy="161" rx="48" ry="95" fill="#FFFFFF" transform="rotate(240 256 256)"/>
    <ellipse cx="256" cy="161" rx="48" ry="95" fill="#FFFFFF" transform="rotate(300 256 256)"/>
    <circle cx="256" cy="256" r="44" fill="#FFD9EC"/>
  </g>
  <circle cx="110" cy="110" r="10" fill="#FFFFFF" opacity="0.85"/>
  <circle cx="410" cy="120" r="8" fill="#FFFFFF" opacity="0.85"/>
  <circle cx="120" cy="400" r="8" fill="#FFFFFF" opacity="0.85"/>
  <circle cx="400" cy="402" r="10" fill="#FFFFFF" opacity="0.85"/>
  <circle cx="256" cy="80" r="6" fill="#FFFFFF" opacity="0.8"/>
  <circle cx="432" cy="256" r="6" fill="#FFFFFF" opacity="0.8"/>
  <path d="M392 82 L400 100 L418 108 L400 116 L392 134 L384 116 L366 108 L384 100 Z" fill="#FFFFFF" opacity="0.95"/>
  <path d="M112 370 L119 385 L134 392 L119 399 L112 414 L105 399 L90 392 L105 385 Z" fill="#FFFFFF" opacity="0.9"/>
  <path d="M430 160 L436 172 L448 178 L436 184 L430 196 L424 184 L412 178 L424 172 Z" fill="#FFFFFF" opacity="0.9"/>
</svg>
